<mxfile host="app.diagrams.net" modified="2024-04-22T19:45:58.796Z" agent="Mozilla/5.0 (Windows NT 10.0; Win64; x64) AppleWebKit/537.36 (KHTML, like Gecko) Chrome/123.0.0.0 Safari/537.36" etag="7F1L1JDKW6aVVQykTjB9" version="24.2.8" type="device">
  <diagram name="Página-1" id="bYwkE5UrxV63puICQME5">
    <mxGraphModel dx="1434" dy="784" grid="1" gridSize="10" guides="1" tooltips="1" connect="1" arrows="1" fold="1" page="1" pageScale="1" pageWidth="827" pageHeight="1169" math="0" shadow="0">
      <root>
        <mxCell id="0" />
        <mxCell id="1" parent="0" />
        <mxCell id="auazuBhvb1s_olCQx8mx-2" value="" style="rounded=0;whiteSpace=wrap;html=1;rotation=90;fillColor=#121111;strokeColor=#d79b00;" vertex="1" parent="1">
          <mxGeometry x="-45" y="248" width="917.5" height="672.5" as="geometry" />
        </mxCell>
        <mxCell id="auazuBhvb1s_olCQx8mx-3" value="" style="rounded=0;whiteSpace=wrap;html=1;strokeColor=#006EAF;fillColor=#1ba1e2;fontColor=#ffffff;" vertex="1" parent="1">
          <mxGeometry x="120" y="248" width="600" height="160" as="geometry" />
        </mxCell>
        <mxCell id="auazuBhvb1s_olCQx8mx-4" value="Título" style="rounded=1;whiteSpace=wrap;html=1;fillColor=#1ba1e2;fontColor=#ffffff;strokeColor=#006EAF;" vertex="1" parent="1">
          <mxGeometry x="120" y="160" width="600" height="60" as="geometry" />
        </mxCell>
        <mxCell id="auazuBhvb1s_olCQx8mx-5" value="&lt;font style=&quot;font-size: 20px;&quot; face=&quot;Times New Roman&quot; color=&quot;#fcfcfc&quot;&gt;Informações:&lt;/font&gt;" style="rounded=0;whiteSpace=wrap;html=1;fillColor=#363636;" vertex="1" parent="1">
          <mxGeometry x="120" y="440" width="600" height="110" as="geometry" />
        </mxCell>
        <mxCell id="auazuBhvb1s_olCQx8mx-6" value="" style="rounded=0;whiteSpace=wrap;html=1;fillColor=#363636;" vertex="1" parent="1">
          <mxGeometry x="120" y="585" width="600" height="110" as="geometry" />
        </mxCell>
        <mxCell id="auazuBhvb1s_olCQx8mx-7" value="" style="rounded=0;whiteSpace=wrap;html=1;fillColor=#363636;" vertex="1" parent="1">
          <mxGeometry x="120" y="740" width="600" height="110" as="geometry" />
        </mxCell>
        <mxCell id="auazuBhvb1s_olCQx8mx-8" value="" style="rounded=0;whiteSpace=wrap;html=1;fillColor=#363636;" vertex="1" parent="1">
          <mxGeometry x="120" y="890" width="600" height="110" as="geometry" />
        </mxCell>
        <mxCell id="auazuBhvb1s_olCQx8mx-13" value="Imagem" style="ellipse;whiteSpace=wrap;html=1;aspect=fixed;" vertex="1" parent="1">
          <mxGeometry x="560" y="270" width="120" height="120" as="geometry" />
        </mxCell>
        <mxCell id="auazuBhvb1s_olCQx8mx-15" value="IMG" style="whiteSpace=wrap;html=1;aspect=fixed;" vertex="1" parent="1">
          <mxGeometry x="393.75" y="630" width="40" height="40" as="geometry" />
        </mxCell>
        <mxCell id="auazuBhvb1s_olCQx8mx-18" value="IMG" style="whiteSpace=wrap;html=1;aspect=fixed;" vertex="1" parent="1">
          <mxGeometry x="453.75" y="630" width="40" height="40" as="geometry" />
        </mxCell>
        <mxCell id="auazuBhvb1s_olCQx8mx-19" value="IMG" style="whiteSpace=wrap;html=1;aspect=fixed;" vertex="1" parent="1">
          <mxGeometry x="333.75" y="630" width="40" height="40" as="geometry" />
        </mxCell>
        <mxCell id="auazuBhvb1s_olCQx8mx-23" value="IMG" style="whiteSpace=wrap;html=1;aspect=fixed;" vertex="1" parent="1">
          <mxGeometry x="303.75" y="780" width="40" height="40" as="geometry" />
        </mxCell>
        <mxCell id="auazuBhvb1s_olCQx8mx-24" value="IMG" style="whiteSpace=wrap;html=1;aspect=fixed;" vertex="1" parent="1">
          <mxGeometry x="423.75" y="780" width="40" height="40" as="geometry" />
        </mxCell>
        <mxCell id="auazuBhvb1s_olCQx8mx-25" value="IMG" style="whiteSpace=wrap;html=1;aspect=fixed;" vertex="1" parent="1">
          <mxGeometry x="483.75" y="780" width="40" height="40" as="geometry" />
        </mxCell>
        <mxCell id="auazuBhvb1s_olCQx8mx-26" value="IMG" style="whiteSpace=wrap;html=1;aspect=fixed;" vertex="1" parent="1">
          <mxGeometry x="363.75" y="780" width="40" height="40" as="geometry" />
        </mxCell>
        <mxCell id="auazuBhvb1s_olCQx8mx-28" value="Nome" style="rounded=0;whiteSpace=wrap;html=1;" vertex="1" parent="1">
          <mxGeometry x="190" y="310" width="190" height="50" as="geometry" />
        </mxCell>
        <mxCell id="auazuBhvb1s_olCQx8mx-29" value="&lt;span style=&quot;color: rgb(252, 252, 252); font-family: &amp;quot;Times New Roman&amp;quot;; font-size: 20px;&quot;&gt;Linguagens em aprendizado:&lt;/span&gt;" style="text;html=1;align=center;verticalAlign=middle;whiteSpace=wrap;rounded=0;" vertex="1" parent="1">
          <mxGeometry x="296.88" y="590" width="246.25" height="30" as="geometry" />
        </mxCell>
        <mxCell id="auazuBhvb1s_olCQx8mx-34" value="&lt;span style=&quot;color: rgb(252, 252, 252); font-family: &amp;quot;Times New Roman&amp;quot;; font-size: 20px;&quot;&gt;Contato:&lt;/span&gt;" style="text;html=1;align=center;verticalAlign=middle;whiteSpace=wrap;rounded=0;" vertex="1" parent="1">
          <mxGeometry x="290.63" y="750" width="246.25" height="30" as="geometry" />
        </mxCell>
        <mxCell id="auazuBhvb1s_olCQx8mx-35" value="&lt;span style=&quot;color: rgb(252, 252, 252); font-family: &amp;quot;Times New Roman&amp;quot;; font-size: 20px;&quot;&gt;Trecho Interessante:&lt;/span&gt;" style="text;html=1;align=center;verticalAlign=middle;whiteSpace=wrap;rounded=0;" vertex="1" parent="1">
          <mxGeometry x="296.88" y="900" width="246.25" height="30" as="geometry" />
        </mxCell>
      </root>
    </mxGraphModel>
  </diagram>
</mxfile>
